<svg aria-hidden="true" style="position: absolute; width: 0; height: 0; overflow: hidden;" version="1.1" xmlns="http://www.w3.org/2000/svg" xmlns:xlink="http://www.w3.org/1999/xlink">
<defs>
<symbol id="icon-frame" viewBox="0 0 39 32">
<path fill="none" stroke="#e1e5f0" style="stroke: var(--color1, #e1e5f0)" stroke-linejoin="miter" stroke-linecap="butt" stroke-miterlimit="4" stroke-width="2.4615" d="M12.308 3.692h14.769c6.118 0 11.077 4.959 11.077 11.077v2.462c0 6.118-4.959 11.077-11.077 11.077h-14.769c-6.118 0-11.077-4.959-11.077-11.077v-2.462c0-6.118 4.959-11.077 11.077-11.077z"></path>
</symbol>
<symbol id="icon-tool" viewBox="0 0 32 32">
<path fill="none" stroke="#e1e5f0" style="stroke: var(--color1, #e1e5f0)" stroke-linejoin="round" stroke-linecap="round" stroke-miterlimit="4" stroke-width="2" d="M19.6 8.4c-0.244 0.249-0.381 0.584-0.381 0.933s0.137 0.684 0.381 0.933l2.133 2.133c0.249 0.244 0.584 0.381 0.933 0.381s0.684-0.137 0.933-0.381l5.027-5.027c0.671 1.482 0.873 3.132 0.582 4.732s-1.064 3.073-2.214 4.223c-1.15 1.15-2.623 1.922-4.223 2.213s-3.251 0.088-4.732-0.582l-9.213 9.213c-0.53 0.53-1.25 0.829-2 0.829s-1.47-0.298-2-0.828c-0.53-0.53-0.828-1.25-0.828-2s0.298-1.47 0.828-2l9.213-9.213c-0.671-1.482-0.873-3.132-0.582-4.732s1.064-3.073 2.214-4.223c1.15-1.15 2.623-1.922 4.223-2.214s3.251-0.088 4.732 0.582l-5.027 5.027z"></path>
</symbol>
<symbol id="icon-clipboard" viewBox="0 0 32 32">
<path fill="none" stroke="#e1e5f0" style="stroke: var(--color1, #e1e5f0)" stroke-linejoin="round" stroke-linecap="round" stroke-miterlimit="4" stroke-width="2" d="M21.333 5.333h2.667c0.707 0 1.386 0.281 1.886 0.781s0.781 1.178 0.781 1.886v18.667c0 0.707-0.281 1.386-0.781 1.886s-1.178 0.781-1.886 0.781h-16c-0.707 0-1.386-0.281-1.886-0.781s-0.781-1.178-0.781-1.886v-18.667c0-0.707 0.281-1.386 0.781-1.886s1.178-0.781 1.886-0.781h2.667"></path>
<path fill="none" stroke="#e1e5f0" style="stroke: var(--color1, #e1e5f0)" stroke-linejoin="round" stroke-linecap="round" stroke-miterlimit="4" stroke-width="2" d="M20 2.667h-8c-0.736 0-1.333 0.597-1.333 1.333v2.667c0 0.736 0.597 1.333 1.333 1.333h8c0.736 0 1.333-0.597 1.333-1.333v-2.667c0-0.736-0.597-1.333-1.333-1.333z"></path>
<path fill="none" stroke="#e1e5f0" style="stroke: var(--color1, #e1e5f0)" stroke-linejoin="round" stroke-linecap="round" stroke-miterlimit="4" stroke-width="2" d="M22 21h-12"></path>
<path fill="none" stroke="#e1e5f0" style="stroke: var(--color1, #e1e5f0)" stroke-linejoin="round" stroke-linecap="round" stroke-miterlimit="4" stroke-width="2" d="M22 16h-12"></path>
</symbol>
<symbol id="icon-chevron-down" viewBox="0 0 32 32">
<path fill="none" stroke="#a1a5ba" style="stroke: var(--color2, #a1a5ba)" stroke-linejoin="round" stroke-linecap="round" stroke-miterlimit="4" stroke-width="2.6667" d="M8 12l8 8 8-8"></path>
</symbol>
<symbol id="icon-filter" viewBox="0 0 32 32">
<path fill="none" stroke="#656d8b" style="stroke: var(--color1, #656d8b)" stroke-linejoin="round" stroke-linecap="round" stroke-miterlimit="4" stroke-width="3" d="M29.333 4h-26.667l10.667 12.613v8.72l5.333 2.667v-11.387l10.667-12.613z"></path>
</symbol>
</defs>
</svg>
